<?xml version="1.0" encoding="UTF-8"?><svg id="Layer_1" xmlns="http://www.w3.org/2000/svg" viewBox="0 0 285.241114937201928 285.162943918868223"><path d="M151.044860012514619,285.162943918868223h-16.70980626117489c-3.369176732705455-.929589937103628-7.293779797135358-.734243317703658-10.789753209330229-1.18560806185269C60.958342220398663,275.896740526600297,9.256892290296491,224.378871864261782,1.285218181765231,161.717253496771264c-.444982154754143-3.49779752431823-.260883974249737-7.41876754662826-1.18560806185269-10.789753209329319.229996873093114-5.527564724621698-.312082038103654-11.197351818054813,0-16.709806261173981C7.000439064582679,12.325048719341794,156.946563123108717-45.220625534950159,243.727002683892351,41.814048125906993c86.614271428461507,86.868018718305393,29.020794422614927,236.458806987071512-92.682142671377733,243.34889579296123ZM91.315571370623729,68.066614372356526c-1.121490174693463.06074656517012-2.309854683433514.584352078057236-3.243127600630942,1.229434910400414-3.38100652729463,2.336968347207403-12.717703954440367,12.671906672407204-14.898331174846135,16.293058283198661-10.470760546903875,17.387754800920447-4.403925730575793,33.767519509712656,4.057777296482527,50.310892887133377,17.103132900605488,33.438128541445622,58.020250989660781,71.823394041462052,95.423015791146099,80.029949243077681,16.251557668727401,3.565760601614784,33.551967846962725-3.655813637995379,43.232783783871128-17.148109794506126,3.000570817182961-4.181939866210087,2.282880917739021-5.947579453450999-.776248198801113-9.712638411826447-3.805782615645512-4.684011489800469-21.803509433719228-23.163139364974086-26.229149151829915-26.128581868956644-2.454589742677854-1.644721490315533-3.957799171112129-1.951191820570784-6.678319416041631-.625343001832334-6.888304415380844,3.357023455077069-15.147070076287491,18.648766604280354-23.131247591782085,19.755281683919748-3.230465877308234.447705377362581-6.245581809582291.156620764522813-9.106346063103047-1.379407016168443-11.446846663962788-6.146145896327653-37.915832372331352-32.24557229441325-44.494431653357424-43.510550621926996-8.702203849666148-14.901369361532488,10.45241428799909-22.514301773460829,17.393341457912356-32.535319131257893,2.281598861629391-3.294076027044866,1.909256419479789-5.191103950523029-.492775024193179-8.31601966290782-3.8135043133625-4.96116717350742-21.543040954768003-22.80857730876869-26.455078840001988-26.459702283073057-1.348652526426122-1.002455403630847-2.834387100784625-1.898682235239903-4.601863614824651-1.802945215274121Z"/></svg>