<?xml version="1.0" encoding="UTF-8"?><svg id="Layer_1" xmlns="http://www.w3.org/2000/svg" viewBox="0 0 286.145061473896931 286.145061473896021"><path d="M286.145061473896931,143.072530736948465c0,79.016776845713139-64.055753891235327,143.072530736947556-143.072530736949375,143.072530736947556C64.055753891234417,286.145061473896021,0,222.089307582661604,0,143.072530736948465,0,64.055753891234417,64.055753891234417,0,143.072530736947556,0c79.016776845714048,0,143.072530736947556,64.055753891234417,143.072530736949375,143.072530736948465ZM232.489124271473884,143.053093422256097c0-49.380387325339143-40.030713271711647-89.41110059705079-89.41110059705079-89.41110059705079-49.380387325338233,0-89.4111005970517,40.030713271711647-89.4111005970517,89.41110059705079,0,49.380387325340052,40.030713271713466,89.411100597052609,89.4111005970517,89.411100597052609,49.380387325339143,0,89.41110059705079-40.030713271712557,89.41110059705079-89.411100597052609Z"/><path d="M176.913094169159194,119.530599578311922c2.688003357867274,15.477939148545374,2.687366191559704,31.591072568223353,0,47.064892795859123l-67.650657514741397.000000066869688c-2.719874893209635-15.465987540463175-2.719118996925317-31.603762969828495,0-47.0648929295985l67.650657514741397.000000066869688Z"/><path d="M174.577251765924302,107.334590291548921h-62.978972732338661c2.735313509765547-13.944124762099818,14.440785694391707-41.494785146803224,31.17706705080127-41.825384243544249,17.025802586451391-.336318136420232,29.097047139435745,27.812403085801634,31.801905681537392,41.825384243544249Z"/><path d="M174.577251765924302,178.791501660934046c-2.701719800581486,13.892751182747816-14.490657207355071,41.498198400865476-31.17706705080127,41.825384243545159-17.027920060281758.333882148783232-29.095630122063994-27.810346301497702-31.801905681537392-41.825384243545159h62.978972732338661Z"/><path d="M216.966944951154801,119.445931201614258c4.828259656915179,15.455305036863138,4.829806602725512,31.773929840996061,0,47.234229549254451h-27.856084093151367l1.845537262484868-19.652047887462686-1.845537262484868-27.582181661791765h27.856084093151367Z"/><path d="M97.064669941506509,119.445931201614258c-2.298706989403399,15.677609709357966-2.298541044623562,31.557696878679053,0,47.234229549254451h-27.856084093150457c-4.828259649575557-15.455304884152611-4.829806595284026-31.773929994043101,0-47.234229549254451h27.856084093150457Z"/><path d="M74.658689257885271,107.334590291548921c7.78221783736808-15.999968399663885,22.422902170745147-29.334226708013375,39.053738079425784-35.733753186094873l-9.833600792260768,19.839145583231584-4.391888421529984,15.894607602863289h-24.828248865635032Z"/><path d="M211.516841541624672,107.334590291548921h-24.828248865635032c-2.102015686392406-12.692373639442849-7.594961970501572-24.707239729870707-14.529685651164073-35.429557619818297-.137608195875146-.423698396309192.470396672236348-.378816648480097.907716350696319-.305279146156863,2.25277770530829.37881589578592,8.892564450198734,4.38597942981778,11.148674730157836,5.810294401855572,11.207132236630059,7.075224283155876,21.608204569455665,17.909287414462597,27.30154343594495,29.924542364119588Z"/><path d="M211.516841541624672,178.791501660934046c-5.693338866489285,12.015254949657901-16.094411199314891,22.849318080963712-27.30154343594495,29.924542364119588-2.256110279959103,1.424314972037791-8.895897024849546,5.431478506069652-11.148674730157836,5.810294401854662-.437319678459971.073537502325053-1.045324546571464.118419250152328-.907716350696319-.305279146155954,6.934723680662501-10.72231788994759,12.427669964771667-22.737183980376358,14.529685651164073-35.429557619818297h24.828248865635032Z"/><path d="M99.486938123520304,178.791501660934046l4.391888421529984,15.894607602862379,9.833600792260768,19.839145583232494c-16.580637278783797-6.374523576741012-31.250724885181626-19.782924004411143-39.053738079425784-35.733753186094873h24.828248865635032Z"/></svg>