<?xml version="1.0" encoding="UTF-8"?><svg id="Layer_1" xmlns="http://www.w3.org/2000/svg" viewBox="0 0 285.394828787597362 285.162943918868223"><path d="M151.536907277428327,0l14.606139950231409,1.833735930241346c60.827993932275604,10.025905957936629,109.954935417181332,60.459136791286255,117.947769313988829,121.684319761950064.437363955928049,3.350212023938184.3395496460289,7.018211912205516,1.194233492727108,10.230087064755935-.253846522256936,5.896743077295469.344054827974105,11.953512931318073,0,17.833085700926858-7.30350648867352,124.810042999279176-163.913733935023629,180.241002150920394-248.563317322135845,86.672336193413685C-43.250038051092815,149.855587896166071,15.677226146908652,6.907375194121414,133.703821576501468,0h17.833085700926858ZM65.013108458654642,78.153601950718439c-7.964955112540338,1.799539964765245-13.5920837344147,8.175939592011673-14.335619899198718,16.314996149269064v96.392175014847453c.735392034815959,8.417543956610643,7.275000492338222,15.727315197927055,15.853865573876647,16.468602259052204,51.935884978711329-.51451563667797,104.105813969669725.936623176458852,155.903343245613542-.732948766882146,7.066557286614625-2.493597744083672,11.570192053849496-8.815789084794233,12.157633789179272-16.26384654667163-1.85582486131716-30.966871231242294,2.401410126046358-64.692906852777924-.000091262582828-95.335697643261483-.694085836194063-8.856429219581514-6.902090824674815-16.051077134839943-15.882865184945331-16.996886576136603l-153.696266261942583.153606109783141Z"/><path d="M219.525546512209985,100.311107067711418v90.558638325016545c0,.154404019462163-1.342652663344779,1.350919942732617-1.682512989056704,1.661190579866343H67.397695330776514c-.339860325711015-.310270637133726-1.682512989056704-1.50678656040418-1.682512989056704-1.661190579866343v-90.558638325016545l74.77143906630954,58.695245763555249c1.843159548860058.711676900083148,3.71601849428589.419410927323042,5.420158564116718-.517003681338792l73.618766540063916-58.178242082216457Z"/><polygon points="205.036164380207083 92.50913207355552 142.813572850438504 141.993467873393456 80.204564473722712 92.50913207355552 205.036164380207083 92.50913207355552"/></svg>