<svg width="192" height="36" xmlns="http://www.w3.org/2000/svg" xmlns:xlink="http://www.w3.org/1999/xlink" xml:space="preserve" overflow="hidden"><defs><clipPath id="clip0"><rect x="0" y="0" width="191" height="36"/></clipPath><clipPath id="clip1"><rect x="0" y="0" width="191" height="37"/></clipPath><clipPath id="clip2"><rect x="0" y="0" width="191" height="37"/></clipPath></defs><g><g><g clip-path="url(#clip0)"><g clip-path="url(#clip1)"><g clip-path="url(#clip2)"><path d="M38.9476 6.02839 44.2848 6.02839C45.8426 6.02839 47.2543 6.24992 48.5203 6.69218 49.7857 7.13493 50.8657 7.75025 51.7597 8.5378 52.6537 9.32563 53.344 10.2596 53.831 11.3391 54.3179 12.4193 54.5613 13.5963 54.5613 14.8709 54.5613 16.1455 54.3179 17.3231 53.831 18.4026 53.344 19.4826 52.6537 20.4166 51.7597 21.2042 50.8657 21.992 49.7857 22.6073 48.5203 23.0497 47.2543 23.4924 45.8426 23.7136 44.2848 23.7136L38.9476 23.7136 38.9476 6.02839ZM44.3647 20.7661C45.3026 20.7661 46.1704 20.6329 46.9668 20.3661 47.7635 20.0992 48.4493 19.7125 49.0246 19.2056 49.6 18.6989 50.047 18.0811 50.366 17.3517 50.6846 16.6227 50.8438 15.7958 50.8438 14.8709 50.8438 13.9465 50.6846 13.1196 50.366 12.3901 50.047 11.6612 49.6 11.0433 49.0246 10.5364 48.4493 10.0298 47.7635 9.64306 46.9668 9.37623 46.1704 9.10953 45.3026 8.97589 44.3647 8.97589L42.6651 8.97589 42.6651 20.7661 44.3647 20.7661Z" fill="#071739" fill-rule="nonzero" fill-opacity="1" transform="matrix(1.01498 0 0 1 6.08851e-15 0.0239199)"/><path d="M62.1292 10.5161C62.979 10.5161 63.7358 10.6488 64.3996 10.9143 65.0634 11.1799 65.6165 11.5562 66.0592 12.043 66.5016 12.53 66.838 13.1141 67.0682 13.7955 67.2981 14.4771 67.4133 15.2427 67.4133 16.0924 67.4133 16.4468 67.3911 16.8053 67.3469 17.1679 67.3027 17.5309 67.2362 17.8629 67.1478 18.1637L59.4737 18.1637C59.5091 19.1118 59.8012 19.8665 60.35 20.4283 60.8985 20.9902 61.7745 21.2706 62.979 21.2706 63.6693 21.2706 64.3419 21.2067 64.9969 21.0785 65.6518 20.9503 66.2361 20.7664 66.7495 20.5271L67.2011 22.9966C66.5635 23.3153 65.8375 23.5588 65.0234 23.7268 64.209 23.8949 63.368 23.9791 62.5009 23.9791 61.4209 23.9791 60.465 23.8198 59.6329 23.5011 58.8007 23.1824 58.097 22.7311 57.522 22.1468 56.9463 21.5627 56.5084 20.8589 56.2075 20.0358 55.9062 19.2126 55.7562 18.3057 55.7562 17.314 55.7562 16.3049 55.9023 15.3801 56.1944 14.5391 56.4865 13.6984 56.9066 12.9814 57.4555 12.3881 58.004 11.7952 58.6724 11.3352 59.4603 11.0073 60.2479 10.68 61.1376 10.5161 62.1292 10.5161ZM61.9167 12.959C61.1733 12.959 60.6022 13.2204 60.204 13.7424 59.8054 14.2647 59.5706 14.924 59.5002 15.7207L63.9349 15.7207C64.0233 14.8888 63.8992 14.2204 63.5629 13.7158 63.2266 13.2113 62.6777 12.959 61.9167 12.959Z" fill="#071739" fill-rule="nonzero" fill-opacity="1" transform="matrix(1.01498 0 0 1 6.08851e-15 0.0239199)"/><path d="M75.4591 10.5161C76.096 10.5161 76.7555 10.5823 77.4373 10.7152 78.1188 10.8479 78.6899 11.0384 79.15 11.2862L78.7518 13.8884C77.9194 13.5167 76.9995 13.3307 75.9902 13.3307 74.7157 13.3307 73.7768 13.6806 73.1753 14.3797 72.5734 15.0793 72.2724 16.0306 72.2724 17.2343 72.2724 18.4383 72.5734 19.3943 73.1753 20.1021 73.7768 20.8104 74.7157 21.1643 75.9902 21.1643 76.9995 21.1643 77.9194 20.9785 78.7518 20.6066L79.15 23.209C78.6899 23.4571 78.1188 23.6471 77.4373 23.78 76.7555 23.9127 76.096 23.9791 75.4591 23.9791 74.3437 23.9791 73.3613 23.8066 72.5118 23.4613 71.6617 23.116 70.9488 22.6427 70.374 22.0407 69.7983 21.439 69.3648 20.7262 69.0726 19.903 68.7805 19.0799 68.6345 18.1903 68.6345 17.2343 68.6345 16.2784 68.7805 15.3887 69.0726 14.5656 69.3648 13.7424 69.7983 13.0346 70.374 12.4412 70.9488 11.8483 71.6617 11.379 72.5118 11.0339 73.3613 10.6886 74.3437 10.5161 75.4591 10.5161Z" fill="#071739" fill-rule="nonzero" fill-opacity="1" transform="matrix(1.01498 0 0 1 6.08851e-15 0.0239199)"/><path d="M80.8228 7.01088C80.8228 6.42663 81.0176 5.93123 81.407 5.52385 81.7964 5.1168 82.301 4.91304 82.9206 4.91304 83.5402 4.91304 84.0491 5.1168 84.4476 5.52385 84.8461 5.93123 85.0452 6.42663 85.0452 7.01088 85.0452 7.57767 84.8461 8.06895 84.4476 8.48465 84.0491 8.9008 83.5402 9.10858 82.9206 9.10858 82.301 9.10858 81.7964 8.9008 81.407 8.48465 81.0176 8.06895 80.8228 7.57767 80.8228 7.01088ZM81.1152 23.7136 81.1152 10.7816 84.7528 10.7816 84.7528 23.7136 81.1152 23.7136Z" fill="#071739" fill-rule="nonzero" fill-opacity="1" transform="matrix(1.01498 0 0 1 6.08851e-15 0.0239199)"/><path d="M101.722 13.4104C101.154 13.4104 100.663 13.5698 100.248 13.8884 99.8314 14.2071 99.4993 14.5436 99.2514 14.8975 99.3048 15.2162 99.349 15.5573 99.3844 15.9198 99.4197 16.2829 99.4374 16.6414 99.4374 16.9953L99.4374 23.7136 95.7995 23.7136 95.7995 16.9688C95.7995 15.765 95.6312 14.8709 95.2949 14.2868 94.9585 13.7026 94.3924 13.4104 93.5956 13.4104 93.0468 13.4104 92.5909 13.5345 92.2281 13.7823 91.8649 14.0304 91.5597 14.3225 91.3118 14.6585L91.3118 23.7136 87.6742 23.7136 87.6742 10.7816 91.1792 10.7816 91.1792 12.5342C91.6042 11.8437 92.1439 11.3352 92.7989 11.0073 93.4535 10.68 94.1707 10.5161 94.9497 10.5161 95.8526 10.5161 96.5963 10.7197 97.1805 11.1267 97.7644 11.5343 98.2336 12.074 98.588 12.7466 99.1722 11.9325 99.8268 11.3571 100.553 11.0206 101.279 10.6845 102.093 10.5161 102.996 10.5161 103.828 10.5161 104.532 10.68 105.107 11.0073 105.682 11.3352 106.151 11.7907 106.514 12.3748 106.877 12.959 107.143 13.6453 107.311 14.4328 107.479 15.2206 107.563 16.0751 107.563 16.9953L107.563 23.7136 103.925 23.7136 103.925 16.9688C103.925 15.765 103.757 14.8709 103.421 14.2868 103.084 13.7026 102.518 13.4104 101.722 13.4104Z" fill="#071739" fill-rule="nonzero" fill-opacity="1" transform="matrix(1.01498 0 0 1 6.08851e-15 0.0239199)"/><path d="M117.468 22.3328C116.99 22.7933 116.414 23.1824 115.742 23.5011 115.069 23.8198 114.29 23.9791 113.405 23.9791 112.838 23.9791 112.325 23.8861 111.865 23.7003 111.404 23.5144 111.015 23.258 110.696 22.9302 110.378 22.6028 110.129 22.2179 109.953 21.7751 109.776 21.3329 109.687 20.8456 109.687 20.3147 109.687 19.1287 110.086 18.2259 110.882 17.606 111.679 16.9865 112.768 16.6326 114.149 16.5439 114.68 16.5086 115.228 16.482 115.795 16.4642 116.361 16.4468 116.874 16.429 117.335 16.4111L117.335 15.9597C117.335 15.1278 117.131 14.4951 116.724 14.0611 116.317 13.6275 115.68 13.4104 114.812 13.4104 114.139 13.4104 113.502 13.4901 112.9 13.6494 112.298 13.8088 111.767 14.0125 111.307 14.2602L110.59 11.711C111.263 11.3219 112.006 11.0251 112.821 10.8213 113.635 10.618 114.511 10.5161 115.45 10.5161 117.167 10.5161 118.517 10.9852 119.499 11.9234 120.482 12.8619 120.973 14.2514 120.973 16.0924L120.973 23.7136 117.468 23.7136 117.468 22.3328ZM114.733 21.5096C115.246 21.5096 115.724 21.4212 116.166 21.244 116.609 21.0673 116.999 20.8456 117.335 20.5802L117.335 18.5355C116.963 18.5712 116.565 18.6064 116.14 18.6416 115.715 18.6773 115.326 18.7213 114.972 18.7745 114.44 18.8632 114.016 19.0093 113.697 19.2126 113.379 19.4163 113.219 19.757 113.219 20.2349 113.219 20.6598 113.356 20.9785 113.631 21.1909 113.905 21.4033 114.272 21.5096 114.733 21.5096Z" fill="#071739" fill-rule="nonzero" fill-opacity="1" transform="matrix(1.01498 0 0 1 6.08851e-15 0.0239199)"/><path d="M127.213 19.9694C127.213 20.3768 127.297 20.6822 127.466 20.8855 127.634 21.0893 127.921 21.1909 128.328 21.1909 128.488 21.1909 128.656 21.1822 128.833 21.1643 129.01 21.1469 129.178 21.1203 129.338 21.0846L129.47 23.6339C129.169 23.7222 128.797 23.7974 128.355 23.8596 127.912 23.9215 127.479 23.9525 127.054 23.9525 126.399 23.9525 125.85 23.8504 125.408 23.6471 124.965 23.4438 124.606 23.1692 124.332 22.8241 124.057 22.4788 123.863 22.0897 123.748 21.6556 123.633 21.2219 123.575 20.7752 123.575 20.3147L123.575 4.96616 127.213 4.96616 127.213 19.9694Z" fill="#071739" fill-rule="nonzero" fill-opacity="1" transform="matrix(1.01498 0 0 1 6.08851e-15 0.0239199)"/><path d="M136.427 6.02839 147.049 6.02839 147.049 8.97589 140.145 8.97589 140.145 13.2512 146.73 13.2512 146.73 16.1987 140.145 16.1987 140.145 20.7661 147.129 20.7661 147.129 23.7136 136.427 23.7136 136.427 6.02839Z" fill="#071739" fill-rule="nonzero" fill-opacity="1" transform="matrix(1.01498 0 0 1 6.08851e-15 0.0239199)"/><path d="M161.309 23.7136 157.83 23.7136 157.83 22.0407C157.405 22.6073 156.861 23.0722 156.197 23.4347 155.533 23.7974 154.75 23.9791 153.847 23.9791 153.104 23.9791 152.417 23.8152 151.789 23.4879 151.16 23.1605 150.621 22.7045 150.17 22.1202 149.718 21.5362 149.364 20.8416 149.107 20.0358 148.85 19.2304 148.722 18.3495 148.722 17.3936 148.722 16.2784 148.899 15.2917 149.253 14.4328 149.607 13.5743 150.085 12.8574 150.687 12.2819 151.289 11.7068 151.993 11.2687 152.798 10.9675 153.603 10.6667 154.467 10.5161 155.387 10.5161 155.847 10.5161 156.268 10.5471 156.649 10.6089 157.029 10.6712 157.37 10.7551 157.671 10.8612L157.671 4.96616 161.309 4.96616 161.309 23.7136ZM155.095 21.1643C155.662 21.1643 156.153 21.054 156.569 20.8325 156.985 20.6113 157.352 20.3238 157.671 19.9694L157.671 13.5433C157.175 13.3664 156.591 13.2777 155.918 13.2777 154.75 13.2777 153.864 13.6361 153.263 14.3531 152.661 15.0702 152.36 16.066 152.36 17.3404 152.36 17.8895 152.413 18.3985 152.519 18.8673 152.626 19.3366 152.789 19.7395 153.011 20.0757 153.232 20.4121 153.515 20.6777 153.86 20.8722 154.206 21.0673 154.617 21.1643 155.095 21.1643Z" fill="#071739" fill-rule="nonzero" fill-opacity="1" transform="matrix(1.01498 0 0 1 6.08851e-15 0.0239199)"/><path d="M175.86 10.7816 175.86 13.198 173.816 13.198C174.116 13.7117 174.267 14.3046 174.267 14.9772 174.267 15.597 174.143 16.1721 173.895 16.7032 173.647 17.2343 173.294 17.699 172.833 18.0972 172.373 18.4957 171.806 18.8055 171.134 19.0268 170.461 19.2483 169.7 19.3586 168.85 19.3586L168.677 19.3586C168.598 19.3586 168.505 19.3499 168.399 19.332 168.31 19.474 168.24 19.6022 168.187 19.7171 168.133 19.8325 168.107 19.9785 168.107 20.1552 168.107 20.4565 168.24 20.6689 168.505 20.7926 168.77 20.9167 169.116 20.9963 169.541 21.0316L171.665 21.1643C172.993 21.2532 174.032 21.5539 174.785 22.0673 175.537 22.5809 175.914 23.4128 175.914 24.5634 175.914 25.3421 175.705 26.0325 175.289 26.6345 174.873 27.2362 174.32 27.7452 173.63 28.1614 172.939 28.5772 172.147 28.8958 171.253 29.1173 170.359 29.3385 169.434 29.4493 168.478 29.4493 167.735 29.4493 167.018 29.3917 166.327 29.2767 165.637 29.1613 165.022 28.9713 164.482 28.7058 163.942 28.4402 163.513 28.0991 163.194 27.6834 162.875 27.2672 162.716 26.7582 162.716 26.1565 162.716 25.7138 162.813 25.3288 163.008 25.0015 163.203 24.6737 163.455 24.3907 163.765 24.1517 164.074 23.9127 164.429 23.7177 164.827 23.5676 165.226 23.4173 165.637 23.2887 166.062 23.1824 165.69 22.9878 165.398 22.7443 165.186 22.4522 164.973 22.1601 164.867 21.8017 164.867 21.3767 164.867 21.076 164.924 20.8018 165.04 20.5536 165.154 20.3059 165.296 20.0848 165.465 19.8897 165.632 19.6952 165.823 19.5271 166.035 19.3851 166.248 19.2436 166.46 19.1287 166.673 19.04 165.628 18.7391 164.827 18.2301 164.27 17.5131 163.712 16.7962 163.433 15.951 163.433 14.9772 163.433 14.3398 163.552 13.7515 163.792 13.2113 164.03 12.6715 164.38 12.2022 164.84 11.804 165.301 11.4056 165.867 11.0915 166.54 10.8612 167.213 10.6313 167.983 10.5161 168.85 10.5161 169.204 10.5161 169.545 10.5385 169.872 10.5823 170.2 10.6268 170.514 10.6933 170.815 10.7816L175.86 10.7816ZM167.708 23.6073C167.354 23.8019 167.005 24.0409 166.659 24.3244 166.314 24.6072 166.142 24.9882 166.142 25.4662 166.142 26.0147 166.376 26.4176 166.845 26.6743 167.314 26.9308 167.956 27.0595 168.77 27.0595 169.231 27.0595 169.687 27.015 170.138 26.9266 170.589 26.8378 170.992 26.7097 171.346 26.5416 171.7 26.3731 171.988 26.1653 172.209 25.9175 172.43 25.6694 172.541 25.3773 172.541 25.0413 172.541 24.6164 172.369 24.3197 172.023 24.1517 171.678 23.9833 171.222 23.8816 170.656 23.8463L167.708 23.6073ZM168.85 17.0485C169.523 17.0485 170.062 16.8583 170.47 16.4775 170.877 16.097 171.081 15.5878 171.081 14.9506 171.081 14.2959 170.882 13.7781 170.483 13.3971 170.085 13.0167 169.541 12.8262 168.85 12.8262 168.16 12.8262 167.615 13.0122 167.217 13.3839 166.819 13.7557 166.62 14.278 166.62 14.9506 166.62 15.6058 166.823 16.1189 167.23 16.4908 167.637 16.8625 168.177 17.0485 168.85 17.0485Z" fill="#071739" fill-rule="nonzero" fill-opacity="1" transform="matrix(1.01498 0 0 1 6.08851e-15 0.0239199)"/><path d="M182.898 10.5161C183.747 10.5161 184.504 10.6488 185.168 10.9143 185.832 11.1799 186.385 11.5562 186.828 12.043 187.27 12.53 187.606 13.1141 187.837 13.7955 188.067 14.4771 188.182 15.2427 188.182 16.0924 188.182 16.4468 188.16 16.8053 188.116 17.1679 188.071 17.5309 188.005 17.8629 187.917 18.1637L180.242 18.1637C180.277 19.1118 180.569 19.8665 181.118 20.4283 181.667 20.9902 182.543 21.2706 183.747 21.2706 184.437 21.2706 185.11 21.2067 185.765 21.0785 186.42 20.9503 187.004 20.7664 187.518 20.5271L187.969 22.9966C187.332 23.3153 186.606 23.5588 185.792 23.7268 184.977 23.8949 184.137 23.9791 183.269 23.9791 182.189 23.9791 181.233 23.8198 180.402 23.5011 179.569 23.1824 178.865 22.7311 178.29 22.1468 177.715 21.5627 177.277 20.8589 176.976 20.0358 176.674 19.2126 176.524 18.3057 176.524 17.314 176.524 16.3049 176.67 15.3801 176.963 14.5391 177.255 13.6984 177.675 12.9814 178.224 12.3881 178.772 11.7952 179.441 11.3352 180.229 11.0073 181.016 10.68 181.906 10.5161 182.898 10.5161ZM182.685 12.959C181.941 12.959 181.371 13.2204 180.972 13.7424 180.574 14.2647 180.339 14.924 180.269 15.7207L184.703 15.7207C184.791 14.8888 184.667 14.2204 184.332 13.7158 183.995 13.2113 183.446 12.959 182.685 12.959Z" fill="#071739" fill-rule="nonzero" fill-opacity="1" transform="matrix(1.01498 0 0 1 6.08851e-15 0.0239199)"/><path d="M45.7898 35.814 44.9721 35.814 44.2232 33.8557 40.5142 33.8557 39.7653 35.814 38.9476 35.814 41.9885 28.1422 42.7489 28.1422 45.7898 35.814ZM42.3687 28.9486 40.7559 33.2105 43.9812 33.2105 42.3687 28.9486Z" fill="#071739" fill-rule="nonzero" fill-opacity="1" transform="matrix(1.01498 0 0 1 6.08851e-15 0.0239199)"/><path d="M50.5585 28.004C50.9043 28.004 51.2534 28.0343 51.6071 28.0945 51.9601 28.155 52.2637 28.2379 52.5168 28.3434L52.3786 28.9601C52.1098 28.8604 51.8259 28.7836 51.5262 28.7296 51.2269 28.676 50.9309 28.6491 50.6394 28.6491 49.5948 28.6491 48.798 28.9438 48.2492 29.5333 47.7 30.123 47.4256 30.9378 47.4256 31.9781 47.4256 33.0183 47.7 33.8334 48.2492 34.4229 48.798 35.0126 49.5948 35.307 50.6394 35.307 50.9309 35.307 51.2269 35.2802 51.5262 35.2265 51.8259 35.1728 52.1098 35.0961 52.3786 34.9963L52.5168 35.6129C52.2637 35.7183 51.9601 35.8012 51.6071 35.8618 51.2534 35.922 50.9043 35.9522 50.5585 35.9522 49.9442 35.9522 49.3934 35.8523 48.9058 35.6529 48.4178 35.4531 48.0072 35.1747 47.6731 34.8175 47.3391 34.4605 47.0837 34.04 46.9072 33.556 46.7303 33.0723 46.6423 32.5465 46.6423 31.9781 46.6423 31.4098 46.7303 30.8838 46.9072 30.4 47.0837 29.9162 47.3391 29.4957 47.6731 29.1386 48.0072 28.7815 48.4178 28.5033 48.9058 28.3035 49.3934 28.1039 49.9442 28.004 50.5585 28.004Z" fill="#071739" fill-rule="nonzero" fill-opacity="1" transform="matrix(1.01498 0 0 1 6.08851e-15 0.0239199)"/><path d="M57.5855 28.004C57.931 28.004 58.2804 28.0343 58.6337 28.0945 58.9868 28.155 59.2903 28.2379 59.5438 28.3434L59.4053 28.9601C59.1364 28.8604 58.8525 28.7836 58.5528 28.7296 58.2535 28.676 57.9578 28.6491 57.666 28.6491 56.6217 28.6491 55.8246 28.9438 55.2758 29.5333 54.7266 30.123 54.4522 30.9378 54.4522 31.9781 54.4522 33.0183 54.7266 33.8334 55.2758 34.4229 55.8246 35.0126 56.6217 35.307 57.666 35.307 57.9578 35.307 58.2535 35.2802 58.5528 35.2265 58.8525 35.1728 59.1364 35.0961 59.4053 34.9963L59.5438 35.6129C59.2903 35.7183 58.9868 35.8012 58.6337 35.8618 58.2804 35.922 57.931 35.9522 57.5855 35.9522 56.9708 35.9522 56.42 35.8523 55.9324 35.6529 55.4448 35.4531 55.0338 35.1747 54.6998 34.8175 54.3657 34.4605 54.1103 34.04 53.9338 33.556 53.757 33.0723 53.6689 32.5465 53.6689 31.9781 53.6689 31.4098 53.757 30.8838 53.9338 30.4 54.1103 29.9162 54.3657 29.4957 54.6998 29.1386 55.0338 28.7815 55.4448 28.5033 55.9324 28.3035 56.42 28.1039 56.9708 28.004 57.5855 28.004Z" fill="#071739" fill-rule="nonzero" fill-opacity="1" transform="matrix(1.01498 0 0 1 6.08851e-15 0.0239199)"/><path d="M64.393 35.9522C63.8095 35.9522 63.2888 35.8444 62.8323 35.6296 62.3751 35.4148 61.9913 35.125 61.6802 34.7598 61.3691 34.3953 61.1314 33.9729 60.9663 33.4928 60.801 33.0131 60.7184 32.5079 60.7184 31.9781 60.7184 31.4482 60.801 30.9434 60.9663 30.4633 61.1314 29.9834 61.3691 29.561 61.6802 29.1962 61.9913 28.8316 62.3751 28.5415 62.8323 28.3266 63.2888 28.1116 63.8095 28.004 64.393 28.004 64.9766 28.004 65.4969 28.1116 65.9538 28.3266 66.4106 28.5415 66.7947 28.8316 67.1058 29.1962 67.4169 29.561 67.6547 29.9834 67.8201 30.4633 67.9851 30.9434 68.0676 31.4482 68.0676 31.9781 68.0676 32.5079 67.9851 33.0131 67.8201 33.4928 67.6547 33.9729 67.4169 34.3953 67.1058 34.7598 66.7947 35.125 66.4106 35.4148 65.9538 35.6296 65.4969 35.8444 64.9766 35.9522 64.393 35.9522ZM64.393 35.307C64.8538 35.307 65.2628 35.2189 65.6198 35.0421 65.977 34.8656 66.2803 34.6275 66.5298 34.3279 66.7793 34.0286 66.9676 33.6772 67.0944 33.2741 67.2211 32.8706 67.2843 32.4389 67.2843 31.9781 67.2843 31.5251 67.2211 31.0969 67.0944 30.6937 66.9676 30.2904 66.7793 29.9374 66.5298 29.634 66.2803 29.3307 65.977 29.0907 65.6198 28.914 65.2628 28.7375 64.8538 28.6491 64.393 28.6491 63.9323 28.6491 63.5233 28.7375 63.1663 28.914 62.8094 29.0907 62.5078 29.3307 62.2618 29.634 62.0162 29.9374 61.8279 30.2904 61.6976 30.6937 61.5669 31.0969 61.5018 31.5251 61.5018 31.9781 61.5018 32.4389 61.5669 32.8706 61.6976 33.2741 61.8279 33.6772 62.0162 34.0286 62.2618 34.3279 62.5078 34.6275 62.8094 34.8656 63.1663 35.0421 63.5233 35.2189 63.9323 35.307 64.393 35.307Z" fill="#071739" fill-rule="nonzero" fill-opacity="1" transform="matrix(1.01498 0 0 1 6.08851e-15 0.0239199)"/><path d="M74.8526 28.1422 75.6356 28.1422 75.6356 33.1529C75.6356 33.537 75.5743 33.8979 75.4515 34.2359 75.3284 34.5738 75.1444 34.8695 74.8984 35.1227 74.6528 35.3761 74.3473 35.5779 73.9828 35.7275 73.618 35.8775 73.1936 35.9522 72.7099 35.9522 72.2259 35.9522 71.8018 35.8775 71.437 35.7275 71.0722 35.5779 70.767 35.3761 70.5214 35.1227 70.2755 34.8695 70.0911 34.5738 69.9683 34.2359 69.8455 33.8979 69.7839 33.537 69.7839 33.1529L69.7839 28.1422 70.5672 28.1422 70.5672 33.1991C70.5672 33.8288 70.7496 34.3377 71.1145 34.7254 71.4793 35.1132 72.0111 35.307 72.7099 35.307 73.4087 35.307 73.9402 35.1132 74.3054 34.7254 74.6698 34.3377 74.8526 33.8288 74.8526 33.1991L74.8526 28.1422Z" fill="#071739" fill-rule="nonzero" fill-opacity="1" transform="matrix(1.01498 0 0 1 6.08851e-15 0.0239199)"/><path d="M83.1 35.814 78.5501 29.3978 78.5501 35.814 77.8012 35.814 77.8012 28.1422 78.5501 28.1422 83.1 34.5584 83.1 28.1422 83.8486 28.1422 83.8486 35.814 83.1 35.814Z" fill="#071739" fill-rule="nonzero" fill-opacity="1" transform="matrix(1.01498 0 0 1 6.08851e-15 0.0239199)"/><path d="M90.7489 28.1422 90.7489 28.7873 88.4333 28.7873 88.4333 35.814 87.65 35.814 87.65 28.7873 85.3347 28.7873 85.3347 28.1422 90.7489 28.1422Z" fill="#071739" fill-rule="nonzero" fill-opacity="1" transform="matrix(1.01498 0 0 1 6.08851e-15 0.0239199)"/><path d="M93.0752 35.814 92.2919 35.814 92.2919 28.1422 93.0752 28.1422 93.0752 35.814Z" fill="#071739" fill-rule="nonzero" fill-opacity="1" transform="matrix(1.01498 0 0 1 6.08851e-15 0.0239199)"/><path d="M100.62 35.814 96.0703 29.3978 96.0703 35.814 95.3214 35.814 95.3214 28.1422 96.0703 28.1422 100.62 34.5584 100.62 28.1422 101.369 28.1422 101.369 35.814 100.62 35.814Z" fill="#071739" fill-rule="nonzero" fill-opacity="1" transform="matrix(1.01498 0 0 1 6.08851e-15 0.0239199)"/><path d="M107.151 28.004C107.566 28.004 107.965 28.0367 108.35 28.1018 108.733 28.1673 109.087 28.2766 109.409 28.4301L109.271 29.0637C108.956 28.9332 108.618 28.8316 108.257 28.7585 107.896 28.6856 107.532 28.6491 107.163 28.6491 106.664 28.6491 106.213 28.7242 105.809 28.874 105.406 29.0242 105.061 29.2454 104.773 29.5376 104.485 29.83 104.262 30.1877 104.105 30.6108 103.947 31.0338 103.868 31.5185 103.868 32.0647 103.868 33.0956 104.151 33.8976 104.715 34.4703 105.28 35.0434 106.099 35.3303 107.174 35.3303 107.42 35.3303 107.695 35.311 107.998 35.2727 108.302 35.2343 108.553 35.1846 108.752 35.1227L108.752 32.5194 109.478 32.5194 109.478 35.5677C109.171 35.6882 108.799 35.7825 108.361 35.8503 107.923 35.9181 107.497 35.9522 107.082 35.9522 106.46 35.9522 105.903 35.8578 105.412 35.6699 104.921 35.4819 104.502 35.217 104.157 34.8751 103.811 34.5335 103.546 34.1226 103.362 33.6425 103.178 33.1627 103.085 32.6347 103.085 32.0587 103.085 31.4444 103.179 30.8877 103.367 30.3884 103.556 29.8893 103.826 29.4631 104.18 29.1098 104.533 28.7567 104.961 28.4841 105.464 28.292 105.967 28.1001 106.53 28.004 107.151 28.004Z" fill="#071739" fill-rule="nonzero" fill-opacity="1" transform="matrix(1.01498 0 0 1 6.08851e-15 0.0239199)"/><path d="M118.532 33.8557C118.532 34.1707 118.469 34.4566 118.342 34.7136 118.215 34.971 118.039 35.1918 117.812 35.3761 117.586 35.5605 117.315 35.7026 117 35.8025 116.685 35.9021 116.34 35.9522 115.963 35.9522 115.595 35.9522 115.22 35.9119 114.84 35.8313 114.46 35.7504 114.124 35.6414 113.832 35.5029L114.005 34.8695C114.312 35.0077 114.627 35.1151 114.95 35.1918 115.272 35.2687 115.602 35.307 115.941 35.307 116.493 35.307 116.935 35.1803 117.265 34.9272 117.595 34.6737 117.76 34.3279 117.76 33.8904 117.76 33.6523 117.712 33.445 117.616 33.2682 117.52 33.0917 117.39 32.9342 117.225 32.796 117.06 32.6577 116.87 32.533 116.654 32.4216 116.44 32.3104 116.217 32.2009 115.986 32.0933 115.733 31.9705 115.485 31.8419 115.244 31.7074 115.002 31.5731 114.787 31.4214 114.599 31.2523 114.41 31.0836 114.259 30.8915 114.143 30.6764 114.028 30.4616 113.971 30.2119 113.971 29.9277 113.971 29.6129 114.032 29.3345 114.155 29.0925 114.278 28.8506 114.443 28.6491 114.65 28.4878 114.858 28.3266 115.101 28.2056 115.382 28.1249 115.662 28.0444 115.963 28.004 116.286 28.004 116.639 28.004 116.981 28.0386 117.311 28.1076 117.641 28.1768 117.941 28.2766 118.21 28.4071L118.048 29.0637C117.78 28.9332 117.493 28.8316 117.19 28.7585 116.887 28.6856 116.589 28.6491 116.297 28.6491 115.821 28.6491 115.443 28.749 115.163 28.9486 114.882 29.1484 114.742 29.4554 114.742 29.8701 114.742 30.0699 114.771 30.2388 114.829 30.3769 114.886 30.5152 114.976 30.6381 115.1 30.7455 115.222 30.8531 115.378 30.9586 115.566 31.0623 115.754 31.166 115.979 31.2832 116.24 31.4137 116.501 31.5443 116.766 31.6805 117.035 31.8226 117.303 31.9648 117.549 32.1298 117.772 32.3179 117.995 32.5061 118.177 32.723 118.319 32.9689 118.461 33.2145 118.532 33.5102 118.532 33.8557Z" fill="#071739" fill-rule="nonzero" fill-opacity="1" transform="matrix(1.01498 0 0 1 6.08851e-15 0.0239199)"/><path d="M120.237 28.1422 124.338 28.1422 124.338 28.7873 121.02 28.7873 121.02 31.5633 124.199 31.5633 124.199 32.2084 121.02 32.2084 121.02 35.1688 124.372 35.1688 124.372 35.814 120.237 35.814 120.237 28.1422Z" fill="#071739" fill-rule="nonzero" fill-opacity="1" transform="matrix(1.01498 0 0 1 6.08851e-15 0.0239199)"/><path d="M130.881 30.2503C130.881 30.5575 130.825 30.832 130.714 31.0738 130.602 31.3157 130.453 31.527 130.264 31.7074 130.076 31.8879 129.855 32.0415 129.602 32.1682 129.349 32.2949 129.084 32.3928 128.807 32.462L131.56 35.814 130.604 35.814 128.001 32.5886C127.939 32.5964 127.868 32.6022 127.788 32.6059 127.707 32.6099 127.632 32.6116 127.563 32.6116L127.01 32.6116 127.01 35.814 126.227 35.814 126.227 28.1422 128.07 28.1422C128.446 28.1422 128.805 28.1846 129.147 28.2689 129.489 28.3535 129.788 28.4841 130.046 28.6606 130.303 28.8373 130.506 29.0579 130.656 29.323 130.806 29.5879 130.881 29.897 130.881 30.2503ZM130.097 30.2733C130.097 30.0046 130.04 29.7761 129.925 29.5879 129.809 29.3998 129.656 29.2463 129.464 29.1271 129.272 29.0082 129.053 28.9217 128.807 28.8679 128.561 28.8143 128.308 28.7873 128.047 28.7873L127.01 28.7873 127.01 31.9665 127.632 31.9665C127.962 31.9665 128.277 31.932 128.577 31.863 128.876 31.7938 129.139 31.6901 129.366 31.5518 129.592 31.4137 129.771 31.239 129.901 31.0277 130.032 30.8166 130.097 30.5651 130.097 30.2733Z" fill="#071739" fill-rule="nonzero" fill-opacity="1" transform="matrix(1.01498 0 0 1 6.08851e-15 0.0239199)"/><path d="M137.447 28.1422 138.219 28.1422 135.465 35.814 134.682 35.814 131.929 28.1422 132.701 28.1422 135.074 34.8577 137.447 28.1422Z" fill="#071739" fill-rule="nonzero" fill-opacity="1" transform="matrix(1.01498 0 0 1 6.08851e-15 0.0239199)"/><path d="M140.442 35.814 139.658 35.814 139.658 28.1422 140.442 28.1422 140.442 35.814Z" fill="#071739" fill-rule="nonzero" fill-opacity="1" transform="matrix(1.01498 0 0 1 6.08851e-15 0.0239199)"/><path d="M146.132 28.004C146.477 28.004 146.827 28.0343 147.18 28.0945 147.533 28.155 147.837 28.2379 148.09 28.3434L147.952 28.9601C147.683 28.8604 147.399 28.7836 147.099 28.7296 146.8 28.676 146.504 28.6491 146.213 28.6491 145.168 28.6491 144.371 28.9438 143.822 29.5333 143.273 30.123 142.998 30.9378 142.998 31.9781 142.998 33.0183 143.273 33.8334 143.822 34.4229 144.371 35.0126 145.168 35.307 146.213 35.307 146.504 35.307 146.8 35.2802 147.099 35.2265 147.399 35.1728 147.683 35.0961 147.952 34.9963L148.09 35.6129C147.837 35.7183 147.533 35.8012 147.18 35.8618 146.827 35.922 146.477 35.9522 146.132 35.9522 145.517 35.9522 144.966 35.8523 144.479 35.6529 143.991 35.4531 143.58 35.1747 143.246 34.8175 142.912 34.4605 142.657 34.04 142.48 33.556 142.304 33.0723 142.215 32.5465 142.215 31.9781 142.215 31.4098 142.304 30.8838 142.48 30.4 142.657 29.9162 142.912 29.4957 143.246 29.1386 143.58 28.7815 143.991 28.5033 144.479 28.3035 144.966 28.1039 145.517 28.004 146.132 28.004Z" fill="#071739" fill-rule="nonzero" fill-opacity="1" transform="matrix(1.01498 0 0 1 6.08851e-15 0.0239199)"/><path d="M149.829 28.1422 153.93 28.1422 153.93 28.7873 150.613 28.7873 150.613 31.5633 153.792 31.5633 153.792 32.2084 150.613 32.2084 150.613 35.1688 153.965 35.1688 153.965 35.814 149.829 35.814 149.829 28.1422Z" fill="#071739" fill-rule="nonzero" fill-opacity="1" transform="matrix(1.01498 0 0 1 6.08851e-15 0.0239199)"/><path d="M160.093 33.8557C160.093 34.1707 160.029 34.4566 159.903 34.7136 159.776 34.971 159.599 35.1918 159.373 35.3761 159.146 35.5605 158.876 35.7026 158.561 35.8025 158.246 35.9021 157.9 35.9522 157.524 35.9522 157.156 35.9522 156.781 35.9119 156.401 35.8313 156.021 35.7504 155.685 35.6414 155.393 35.5029L155.566 34.8695C155.873 35.0077 156.188 35.1151 156.51 35.1918 156.833 35.2687 157.163 35.307 157.501 35.307 158.054 35.307 158.496 35.1803 158.826 34.9272 159.156 34.6737 159.321 34.3279 159.321 33.8904 159.321 33.6523 159.273 33.445 159.177 33.2682 159.081 33.0917 158.95 32.9342 158.786 32.796 158.62 32.6577 158.43 32.533 158.215 32.4216 158 32.3104 157.778 32.2009 157.547 32.0933 157.294 31.9705 157.046 31.8419 156.804 31.7074 156.562 31.5731 156.347 31.4214 156.159 31.2523 155.971 31.0836 155.819 30.8915 155.704 30.6764 155.589 30.4616 155.531 30.2119 155.531 29.9277 155.531 29.6129 155.592 29.3345 155.716 29.0925 155.838 28.8506 156.003 28.6491 156.211 28.4878 156.418 28.3266 156.662 28.2056 156.942 28.1249 157.223 28.0444 157.524 28.004 157.847 28.004 158.2 28.004 158.542 28.0386 158.872 28.1076 159.202 28.1768 159.501 28.2766 159.77 28.4071L159.609 29.0637C159.34 28.9332 159.054 28.8316 158.751 28.7585 158.447 28.6856 158.15 28.6491 157.858 28.6491 157.382 28.6491 157.004 28.749 156.724 28.9486 156.443 29.1484 156.303 29.4554 156.303 29.8701 156.303 30.0699 156.332 30.2388 156.39 30.3769 156.447 30.5152 156.537 30.6381 156.66 30.7455 156.783 30.8531 156.938 30.9586 157.127 31.0623 157.315 31.166 157.539 31.2832 157.801 31.4137 158.062 31.5443 158.327 31.6805 158.595 31.8226 158.864 31.9648 159.11 32.1298 159.333 32.3179 159.555 32.5061 159.738 32.723 159.88 32.9689 160.022 33.2145 160.093 33.5102 160.093 33.8557Z" fill="#071739" fill-rule="nonzero" fill-opacity="1" transform="matrix(1.01498 0 0 1 6.08851e-15 0.0239199)"/><path d="M32.4298 10.7962C31.4397 8.60169 30.0362 6.70299 28.2191 5.10134 26.4014 3.50035 24.2059 2.24951 21.6333 1.34945 19.06 0.450357 16.1896 5.95677e-13 13.0232 5.95677e-13L2.1729 5.95677e-13 9.73039 5.99197 13.1852 5.99197C15.0924 5.99197 16.8561 6.26368 18.4756 6.80581 20.0948 7.34824 21.4891 8.13441 22.659 9.16432 23.8282 10.1949 24.7373 11.4509 25.3852 12.9328 26.0331 14.4157 26.3569 16.0967 26.3569 17.9759 26.3569 19.8561 26.0331 21.5371 25.3852 23.019 24.7373 24.5019 23.8282 25.7579 22.659 26.7878 21.4891 27.8184 20.0948 28.6045 18.4756 29.147 16.8561 29.6894 15.0924 29.9602 13.1852 29.9602L9.73039 29.9602 2.1729 35.9522 13.0232 35.9522C16.1896 35.9522 19.06 35.5025 21.6333 34.6026 24.2059 33.7034 26.4014 32.4524 28.2191 30.8508 30.0362 29.2498 31.4397 27.3511 32.4298 25.1556 33.4195 22.9611 33.9143 20.5671 33.9143 17.9759 33.9143 15.3847 33.4195 12.992 32.4298 10.7962Z" fill="#E3C39D" fill-rule="nonzero" fill-opacity="1" transform="matrix(1.01498 0 0 1 6.08851e-15 0.0239199)"/><path d="M0 5.95677e-13 7.55779 5.99197 7.55779 14.9801 17.099 14.9801 17.099 20.9721 7.55779 20.9721 7.55779 29.9602 0 35.9522 0 5.95677e-13Z" fill="#071739" fill-rule="nonzero" fill-opacity="1" transform="matrix(1.01498 0 0 1 6.08851e-15 0.0239199)"/></g></g></g></g></g></svg>